<svg xmlns="http://www.w3.org/2000/svg" width="275.588" height="50"
                        viewBox="0 0 275.588 50">
                        <g id="_1s-logo-black" data-name="1s-logo-black" transform="translate(-62.49 -127.07)">
                            <g id="Grupo_112" data-name="Grupo 112" transform="translate(120.744 135.693)">
                                <g id="Grupo_110" data-name="Grupo 110" transform="translate(0 0)">
                                    <path id="Trazado_31" data-name="Trazado 31"
                                        d="M149.44,153.107V140.27h10.036v2.412h-7.41v2.74h6.371v2.392h-6.371v5.293Z"
                                        transform="translate(-149.44 -140.049)" fill="#021f59" />
                                    <path id="Trazado_32" data-name="Trazado 32"
                                        d="M185.26,153.107V140.27h2.626v12.837Z"
                                        transform="translate(-161.261 -140.049)" fill="#021f59" />
                                    <path id="Trazado_33" data-name="Trazado 33"
                                        d="M223.073,153.117h-3.357l-4.033-5.447H214.2l-.02,5.46H211.57V140.3h6.311c2.78,0,4.462,1.507,4.462,3.665a3.589,3.589,0,0,1-3.531,3.651Zm-8.877-7.859h3.685c1.159,0,1.8-.523,1.8-1.313s-.636-1.253-1.8-1.253H214.2Z"
                                        transform="translate(-169.944 -140.059)" fill="#021f59" />
                                    <path id="Trazado_34" data-name="Trazado 34"
                                        d="M247.5,151.323l1.561-1.909a8.209,8.209,0,0,0,4.556,1.373c1.641,0,2.8-.523,2.8-1.487s-1.373-1.219-2.667-1.427l-.214-.02c-.04,0-.06-.02-.08-.02a.182.182,0,0,1-.094-.02c-3.939-.677-5.253-1.755-5.253-3.725,0-3.223,3.089-4.147,5.715-4.147a12.215,12.215,0,0,1,5.46,1.662l-1.641,1.889a7.74,7.74,0,0,0-3.859-1.1c-1.97,0-2.995.6-2.995,1.581,0,.75.717,1.119,3.048,1.447,1.856.288,5.293.75,5.293,3.839,0,2.358-2.144,3.98-5.541,3.98A12.064,12.064,0,0,1,247.5,151.323Z"
                                        transform="translate(-181.802 -139.94)" fill="#021f59" />
                                    <path id="Trazado_35" data-name="Trazado 35"
                                        d="M291.3,142.682v10.425h-2.646V142.682H284.21V140.27h11.524v2.412Z"
                                        transform="translate(-193.917 -140.049)" fill="#021f59" />
                                    <path id="Trazado_36" data-name="Trazado 36"
                                        d="M347.39,151.323l1.561-1.909a8.193,8.193,0,0,0,4.556,1.373c1.641,0,2.8-.523,2.8-1.487s-1.373-1.219-2.667-1.427l-.214-.02c-.04,0-.06-.02-.08-.02a.182.182,0,0,1-.094-.02c-3.939-.677-5.253-1.755-5.253-3.725,0-3.223,3.089-4.147,5.715-4.147a12.215,12.215,0,0,1,5.46,1.662l-1.641,1.889a7.722,7.722,0,0,0-3.859-1.1c-1.97,0-2.995.6-2.995,1.581,0,.75.717,1.119,3.048,1.447,1.856.288,5.286.75,5.286,3.839,0,2.358-2.144,3.98-5.541,3.98A12.015,12.015,0,0,1,347.39,151.323Z"
                                        transform="translate(-214.768 -139.94)" fill="#021f59" />
                                    <path id="Trazado_37" data-name="Trazado 37"
                                        d="M391.178,142.682v10.425h-2.646V142.682H384.09V140.27h11.524v2.412Z"
                                        transform="translate(-226.88 -140.049)" fill="#021f59" />
                                    <path id="Trazado_38" data-name="Trazado 38"
                                        d="M431.71,153.107H421.54V140.27h10.036v2.412h-7.41v2.74h6.371v2.392h-6.371v2.874h7.551v2.419Z"
                                        transform="translate(-239.239 -140.049)" fill="#021f59" />
                                    <path id="Trazado_39" data-name="Trazado 39"
                                        d="M460.356,153.137H457.75V140.3h6.311c2.78,0,4.462,1.507,4.462,3.665,0,2.124-1.682,3.7-4.462,3.7h-3.685Zm3.712-7.879c1.159,0,1.8-.523,1.8-1.313s-.637-1.253-1.8-1.253h-3.685v2.566Z"
                                        transform="translate(-251.19 -140.059)" fill="#021f59" />
                                </g>
                                <g id="Grupo_111" data-name="Grupo 111" transform="translate(133.178 20.662)">
                                    <path id="Trazado_40" data-name="Trazado 40"
                                        d="M356.8,175.175c0,2.7-2.144,4.4-5.038,4.4H348.22v-8.8h3.544C354.658,170.787,356.8,172.5,356.8,175.175Zm-1.179,0c0-2.05-1.521-3.41-3.859-3.41h-2.405V178.6h2.405C354.1,178.605,355.623,177.239,355.623,175.175Z"
                                        transform="translate(-348.22 -170.78)" fill="#021f59" />
                                    <path id="Trazado_41" data-name="Trazado 41"
                                        d="M377.578,180.032a3.18,3.18,0,0,0,2.117-.777l.637.69a4.083,4.083,0,0,1-2.74.965,3.327,3.327,0,0,1-3.611-3.33,3.24,3.24,0,0,1,3.517-3.269,2.936,2.936,0,0,1,3.256,2.867,3.833,3.833,0,0,1-.094.791h-5.594A2.338,2.338,0,0,0,377.578,180.032Zm2.064-2.934a1.93,1.93,0,0,0-2.157-1.916,2.264,2.264,0,0,0-2.419,1.93h4.576Z"
                                        transform="translate(-356.721 -171.945)" fill="#021f59" />
                                    <path id="Trazado_42" data-name="Trazado 42"
                                        d="M396.77,180.129l.5-.764a4.891,4.891,0,0,0,2.486.65c.911,0,1.849-.241,1.849-1,0-.677-.884-.817-1.93-.992-1.708-.288-2.633-.623-2.633-1.769,0-1.494,1.561-1.93,2.881-1.93a5.219,5.219,0,0,1,2.606.65l-.5.764a4.326,4.326,0,0,0-2.13-.516c-1.152,0-1.769.355-1.769,1,0,.5.328.677,1.7.9,1.561.261,2.867.5,2.867,1.836,0,1.266-1.219,1.97-2.948,1.97A5.83,5.83,0,0,1,396.77,180.129Z"
                                        transform="translate(-364.243 -171.948)" fill="#021f59" />
                                    <path id="Trazado_43" data-name="Trazado 43"
                                        d="M419.76,171.593a.741.741,0,0,1,1.474,0,.741.741,0,0,1-1.474,0Zm.208,8.04v-6.284h1.045v6.284Z"
                                        transform="translate(-371.83 -170.829)" fill="#021f59" />
                                    <path id="Trazado_44" data-name="Trazado 44"
                                        d="M440.832,175.2a2.033,2.033,0,0,1,.516,1.387c0,1.387-1.166,2.3-2.867,2.3a4.3,4.3,0,0,1-1.045-.121h-.121c-.516,0-.8.214-.8.623s.342.6.871.6h1.233c2.378,0,3.477.61,3.477,1.93s-1.085,2.131-3.437,2.131-3.584-.911-3.584-2.077a1.511,1.511,0,0,1,1.032-1.427,1.359,1.359,0,0,1-.65-1.139,1.123,1.123,0,0,1,.965-1.126,2.073,2.073,0,0,1-.8-1.7c0-1.36,1.139-2.285,2.867-2.285a3.923,3.923,0,0,1,1.166.161h2.445l-.261.737h-1Zm-2.224,5.668H437.06c-.637.241-.911.583-.911,1.059,0,.677.663,1.219,2.5,1.219,1.708,0,2.365-.435,2.365-1.233C441.019,181.154,440.4,180.872,438.607,180.872Zm1.668-4.281c0-.858-.65-1.414-1.8-1.414s-1.822.543-1.822,1.414c0,.9.663,1.427,1.822,1.427S440.276,177.489,440.276,176.591Z"
                                        transform="translate(-376.883 -171.942)" fill="#021f59" />
                                    <path id="Trazado_45" data-name="Trazado 45"
                                        d="M465.034,176.866v3.872h-1.045v-3.765a1.7,1.7,0,0,0-1.93-1.775,1.99,1.99,0,0,0-2.184,1.849v3.692H458.83v-6.284h1.045v.717a2.725,2.725,0,0,1,2.378-.871A2.551,2.551,0,0,1,465.034,176.866Z"
                                        transform="translate(-384.724 -171.942)" fill="#021f59" />
                                </g>
                            </g>
                            <g id="Grupo_113" data-name="Grupo 113" transform="translate(62.49 127.07)">
                                <path id="Trazado_46" data-name="Trazado 46"
                                    d="M78.435,157.862H99.091a3.616,3.616,0,0,0-.342-7.216h-11.8a8.17,8.17,0,0,1-.027-16.341h14.157l4.167-7.216h-19a15.24,15.24,0,0,0-7.49,2.345V127.07H71.628L62.49,142.9h7.222l1.842-3.189v30.115Z"
                                    transform="translate(-62.49 -127.07)" fill="#021f59" />
                                <path id="Trazado_47" data-name="Trazado 47"
                                    d="M116.213,156.557a15.409,15.409,0,0,0-14.25-11.577H89.146a3.616,3.616,0,0,0,.342,7.216h11.8a8.17,8.17,0,0,1,.027,16.341H83.84l-4.167,7.216H73.951l-4.181,7.229H75.5l4.167-7.229s22.076.007,22.3,0a15.4,15.4,0,0,0,14.713-15.389A15.184,15.184,0,0,0,116.213,156.557Z"
                                    transform="translate(-64.893 -132.981)" fill="#021f59" />
                                <path id="Trazado_48" data-name="Trazado 48"
                                    d="M86.74,187.346h20.836a15.39,15.39,0,0,0,12.368-7.216"
                                    transform="translate(-70.493 -144.581)" fill="#021f59" />
                            </g>
                        </g>
                    </svg>
 